<svg xmlns="http://www.w3.org/2000/svg" width="805" height="600"><rect width="805" height="600" x="0" y="0" fill="#FFFFFF" id="background"/><g id="viz"><g transform="translate(0,0)"><g transform="translate(50,20)"><g class="bars"><rect id="undefined - mother_age" x="4.968918269079452" y="128.79999999999998" height="431.20000000000005" width="49.45535805318044" fill="#ff7f0e"/><rect id="undefined - father_age" x="55.414556407093635" height="NaN" width="49.45535805318044" fill="#1f77b4"/><rect id="undefined - mother_age" x="110.82911281418721" y="119.2" height="440.8" width="49.45535805318044" fill="#ff7f0e"/><rect id="undefined - father_age" x="161.2747509522014" height="NaN" width="49.45535805318044" fill="#1f77b4"/><rect id="undefined - mother_age" x="216.68930735929496" y="112.47999999999999" height="447.52" width="49.45535805318044" fill="#ff7f0e"/><rect id="undefined - father_age" x="267.13494549730916" y="102.39999999999998" height="457.6" width="49.45535805318044" fill="#1f77b4"/><rect id="undefined - mother_age" x="322.5495019044027" y="97.28" height="462.72" width="49.45535805318044" fill="#ff7f0e"/><rect id="undefined - father_age" x="372.9951400424169" y="86.39999999999998" height="473.6" width="49.45535805318044" fill="#1f77b4"/><rect id="undefined - mother_age" x="428.4096964495105" y="71.68" height="488.32" width="49.45535805318044" fill="#ff7f0e"/><rect id="undefined - father_age" x="478.8553345875247" y="62.400000000000006" height="497.6" width="49.45535805318044" fill="#1f77b4"/><rect id="undefined - mother_age" x="534.2698909946183" y="67.83999999999997" height="492.16" width="49.45535805318044" fill="#ff7f0e"/><rect id="undefined - father_age" x="584.7155291326325" y="59.19999999999996" height="500.80000000000007" width="49.45535805318044" fill="#1f77b4"/><rect id="undefined - mother_age" x="640.130085539726" y="65.12000000000002" height="494.88" width="49.45535805318044" fill="#ff7f0e"/><rect id="undefined - father_age" x="690.5757236777401" y="55.999999999999986" height="504" width="49.45535805318044" fill="#1f77b4"/></g><g id="xAxis" transform="translate(0,560)" fill="none" font-size="10" font-family="sans-serif" text-anchor="middle"><path class="domain" stroke="currentColor" d="M0,0H745"/><g class="tick" opacity="1" transform="translate(54.91941636467676,0)"><line stroke="currentColor" y2="6"/><text fill="currentColor" y="9" dy="0.71em">1960s</text></g><g class="tick" opacity="1" transform="translate(160.77961090978454,0)"><line stroke="currentColor" y2="6"/><text fill="currentColor" y="9" dy="0.71em">1970s</text></g><g class="tick" opacity="1" transform="translate(266.63980545489227,0)"><line stroke="currentColor" y2="6"/><text fill="currentColor" y="9" dy="0.71em">1980s</text></g><g class="tick" opacity="1" transform="translate(372.5,0)"><line stroke="currentColor" y2="6"/><text fill="currentColor" y="9" dy="0.71em">1990s</text></g><g class="tick" opacity="1" transform="translate(478.3601945451078,0)"><line stroke="currentColor" y2="6"/><text fill="currentColor" y="9" dy="0.71em">2000s</text></g><g class="tick" opacity="1" transform="translate(584.2203890902156,0)"><line stroke="currentColor" y2="6"/><text fill="currentColor" y="9" dy="0.71em">2010s</text></g><g class="tick" opacity="1" transform="translate(690.0805836353233,0)"><line stroke="currentColor" y2="6"/><text fill="currentColor" y="9" dy="0.71em">2020s</text></g></g><g id="yAxis" fill="none" font-size="10" font-family="sans-serif" text-anchor="end"><path class="domain" stroke="currentColor" d="M0,560V0"/><g class="tick" opacity="1" transform="translate(0,560)"><line stroke="currentColor" x2="-6"/><text fill="currentColor" x="-9" dy="0.32em">0</text></g><g class="tick" opacity="1" transform="translate(0,480.00000000000006)"><line stroke="currentColor" x2="-6"/><text fill="currentColor" x="-9" dy="0.32em">5</text></g><g class="tick" opacity="1" transform="translate(0,400)"><line stroke="currentColor" x2="-6"/><text fill="currentColor" x="-9" dy="0.32em">10</text></g><g class="tick" opacity="1" transform="translate(0,320)"><line stroke="currentColor" x2="-6"/><text fill="currentColor" x="-9" dy="0.32em">15</text></g><g class="tick" opacity="1" transform="translate(0,240.00000000000003)"><line stroke="currentColor" x2="-6"/><text fill="currentColor" x="-9" dy="0.32em">20</text></g><g class="tick" opacity="1" transform="translate(0,160)"><line stroke="currentColor" x2="-6"/><text fill="currentColor" x="-9" dy="0.32em">25</text></g><g class="tick" opacity="1" transform="translate(0,80.00000000000003)"><line stroke="currentColor" x2="-6"/><text fill="currentColor" x="-9" dy="0.32em">30</text></g><g class="tick" opacity="1" transform="translate(0,0)"><line stroke="currentColor" x2="-6"/><text fill="currentColor" x="-9" dy="0.32em">35</text></g></g><text y="556" x="745" text-anchor="end" style="font-family: Arial, sans-serif; font-size: 12px; fill: rgb(123, 123, 123); font-weight: bold;">Sets</text><text y="0" x="4" dominant-baseline="hanging" text-anchor="start" style="font-family: Arial, sans-serif; font-size: 12px; fill: rgb(123, 123, 123); font-weight: bold;">Value</text></g><text x="4" y="4" style="font-family: Arial, sans-serif; font-size: 12px; fill: black; font-weight: bold; dominant-baseline: hanging;"/></g><g id="grid"><rect x="0" y="0" width="805" height="600" fill="none" stroke="#ccc"/></g></g></svg>